<mxfile host="app.diagrams.net" modified="2023-07-23T14:30:10.851Z" agent="Mozilla/5.0 (Macintosh; Intel Mac OS X 10_15_7) AppleWebKit/605.1.15 (KHTML, like Gecko) Version/16.4 Safari/605.1.15" etag="5z26H-dg0Ax4CDLKM6bU" version="21.5.2" type="device">
  <diagram name="Page-1" id="C5D5EsJtHPpg97sFpzMb">
    <mxGraphModel dx="2074" dy="1162" grid="1" gridSize="10" guides="1" tooltips="1" connect="1" arrows="1" fold="1" page="1" pageScale="1" pageWidth="827" pageHeight="1169" math="0" shadow="0">
      <root>
        <mxCell id="0" />
        <mxCell id="1" parent="0" />
        <mxCell id="5-6ZYQQvU9dG8sNJlfuT-17" style="rounded=0;orthogonalLoop=1;jettySize=auto;html=1;exitX=0.5;exitY=1;exitDx=0;exitDy=0;entryX=0.5;entryY=0;entryDx=0;entryDy=0;endArrow=none;endFill=0;fontSize=18;fontFamily=Libertine;fontSource=https%3A%2F%2Ffonts.cdnfonts.com%2Fcss%2Flinux-libertine;" edge="1" parent="1" source="5-6ZYQQvU9dG8sNJlfuT-1" target="5-6ZYQQvU9dG8sNJlfuT-2">
          <mxGeometry relative="1" as="geometry" />
        </mxCell>
        <mxCell id="5-6ZYQQvU9dG8sNJlfuT-18" style="rounded=0;orthogonalLoop=1;jettySize=auto;html=1;exitX=0.5;exitY=1;exitDx=0;exitDy=0;entryX=0.5;entryY=0;entryDx=0;entryDy=0;endArrow=none;endFill=0;fontSize=18;fontFamily=Libertine;fontSource=https%3A%2F%2Ffonts.cdnfonts.com%2Fcss%2Flinux-libertine;" edge="1" parent="1" source="5-6ZYQQvU9dG8sNJlfuT-1" target="5-6ZYQQvU9dG8sNJlfuT-3">
          <mxGeometry relative="1" as="geometry" />
        </mxCell>
        <mxCell id="5-6ZYQQvU9dG8sNJlfuT-1" value="R" style="ellipse;whiteSpace=wrap;html=1;aspect=fixed;fontFamily=Libertine;fontSource=https%3A%2F%2Ffonts.cdnfonts.com%2Fcss%2Flinux-libertine;fontSize=18;fillColor=#cde5d2;" vertex="1" parent="1">
          <mxGeometry x="240" y="40" width="40" height="40" as="geometry" />
        </mxCell>
        <mxCell id="5-6ZYQQvU9dG8sNJlfuT-20" style="rounded=0;orthogonalLoop=1;jettySize=auto;html=1;exitX=0.5;exitY=1;exitDx=0;exitDy=0;entryX=0.5;entryY=0;entryDx=0;entryDy=0;endArrow=none;endFill=0;fontSize=18;fontFamily=Libertine;fontSource=https%3A%2F%2Ffonts.cdnfonts.com%2Fcss%2Flinux-libertine;" edge="1" parent="1" source="5-6ZYQQvU9dG8sNJlfuT-2" target="5-6ZYQQvU9dG8sNJlfuT-5">
          <mxGeometry relative="1" as="geometry" />
        </mxCell>
        <mxCell id="5-6ZYQQvU9dG8sNJlfuT-21" style="rounded=0;orthogonalLoop=1;jettySize=auto;html=1;exitX=0.5;exitY=1;exitDx=0;exitDy=0;entryX=0.5;entryY=0;entryDx=0;entryDy=0;endArrow=none;endFill=0;fontSize=18;fontFamily=Libertine;fontSource=https%3A%2F%2Ffonts.cdnfonts.com%2Fcss%2Flinux-libertine;" edge="1" parent="1" source="5-6ZYQQvU9dG8sNJlfuT-2" target="5-6ZYQQvU9dG8sNJlfuT-6">
          <mxGeometry relative="1" as="geometry" />
        </mxCell>
        <mxCell id="5-6ZYQQvU9dG8sNJlfuT-2" value="S" style="ellipse;whiteSpace=wrap;html=1;aspect=fixed;fontFamily=Libertine;fontSource=https%3A%2F%2Ffonts.cdnfonts.com%2Fcss%2Flinux-libertine;fontSize=18;fillColor=#CDE5D2;" vertex="1" parent="1">
          <mxGeometry x="120" y="100" width="40" height="40" as="geometry" />
        </mxCell>
        <mxCell id="5-6ZYQQvU9dG8sNJlfuT-22" style="rounded=0;orthogonalLoop=1;jettySize=auto;html=1;exitX=0.5;exitY=1;exitDx=0;exitDy=0;entryX=0.5;entryY=0;entryDx=0;entryDy=0;endArrow=none;endFill=0;fontSize=18;fontFamily=Libertine;fontSource=https%3A%2F%2Ffonts.cdnfonts.com%2Fcss%2Flinux-libertine;" edge="1" parent="1" source="5-6ZYQQvU9dG8sNJlfuT-3" target="5-6ZYQQvU9dG8sNJlfuT-7">
          <mxGeometry relative="1" as="geometry" />
        </mxCell>
        <mxCell id="5-6ZYQQvU9dG8sNJlfuT-23" style="rounded=0;orthogonalLoop=1;jettySize=auto;html=1;exitX=0.5;exitY=1;exitDx=0;exitDy=0;entryX=0.5;entryY=0;entryDx=0;entryDy=0;endArrow=none;endFill=0;fontSize=18;fontFamily=Libertine;fontSource=https%3A%2F%2Ffonts.cdnfonts.com%2Fcss%2Flinux-libertine;" edge="1" parent="1" source="5-6ZYQQvU9dG8sNJlfuT-3" target="5-6ZYQQvU9dG8sNJlfuT-8">
          <mxGeometry relative="1" as="geometry" />
        </mxCell>
        <mxCell id="5-6ZYQQvU9dG8sNJlfuT-3" value="T" style="ellipse;whiteSpace=wrap;html=1;aspect=fixed;fontFamily=Libertine;fontSource=https%3A%2F%2Ffonts.cdnfonts.com%2Fcss%2Flinux-libertine;fontSize=18;fillColor=#CDE5D2;" vertex="1" parent="1">
          <mxGeometry x="240" y="100" width="40" height="40" as="geometry" />
        </mxCell>
        <mxCell id="5-6ZYQQvU9dG8sNJlfuT-24" style="rounded=0;orthogonalLoop=1;jettySize=auto;html=1;exitX=0.5;exitY=1;exitDx=0;exitDy=0;entryX=0.5;entryY=0;entryDx=0;entryDy=0;endArrow=none;endFill=0;fontSize=18;fontFamily=Libertine;fontSource=https%3A%2F%2Ffonts.cdnfonts.com%2Fcss%2Flinux-libertine;" edge="1" parent="1" source="5-6ZYQQvU9dG8sNJlfuT-4" target="5-6ZYQQvU9dG8sNJlfuT-9">
          <mxGeometry relative="1" as="geometry" />
        </mxCell>
        <mxCell id="5-6ZYQQvU9dG8sNJlfuT-25" style="rounded=0;orthogonalLoop=1;jettySize=auto;html=1;exitX=0.5;exitY=1;exitDx=0;exitDy=0;entryX=0.5;entryY=0;entryDx=0;entryDy=0;endArrow=none;endFill=0;fontSize=18;fontFamily=Libertine;fontSource=https%3A%2F%2Ffonts.cdnfonts.com%2Fcss%2Flinux-libertine;" edge="1" parent="1" source="5-6ZYQQvU9dG8sNJlfuT-4" target="5-6ZYQQvU9dG8sNJlfuT-10">
          <mxGeometry relative="1" as="geometry" />
        </mxCell>
        <mxCell id="5-6ZYQQvU9dG8sNJlfuT-4" value="U" style="ellipse;whiteSpace=wrap;html=1;aspect=fixed;fontFamily=Libertine;fontSource=https%3A%2F%2Ffonts.cdnfonts.com%2Fcss%2Flinux-libertine;fontSize=18;fillColor=#CDE5D2;" vertex="1" parent="1">
          <mxGeometry x="360" y="100" width="40" height="40" as="geometry" />
        </mxCell>
        <mxCell id="5-6ZYQQvU9dG8sNJlfuT-26" style="rounded=0;orthogonalLoop=1;jettySize=auto;html=1;exitX=0.5;exitY=1;exitDx=0;exitDy=0;entryX=0.5;entryY=0;entryDx=0;entryDy=0;endArrow=none;endFill=0;fontSize=18;fontFamily=Libertine;fontSource=https%3A%2F%2Ffonts.cdnfonts.com%2Fcss%2Flinux-libertine;" edge="1" parent="1" source="5-6ZYQQvU9dG8sNJlfuT-5" target="5-6ZYQQvU9dG8sNJlfuT-11">
          <mxGeometry relative="1" as="geometry" />
        </mxCell>
        <mxCell id="5-6ZYQQvU9dG8sNJlfuT-5" value="T" style="ellipse;whiteSpace=wrap;html=1;aspect=fixed;fontFamily=Libertine;fontSource=https%3A%2F%2Ffonts.cdnfonts.com%2Fcss%2Flinux-libertine;fontSize=18;fillColor=#CDE5D2;" vertex="1" parent="1">
          <mxGeometry x="90" y="160" width="40" height="40" as="geometry" />
        </mxCell>
        <mxCell id="5-6ZYQQvU9dG8sNJlfuT-27" style="rounded=0;orthogonalLoop=1;jettySize=auto;html=1;exitX=0.5;exitY=1;exitDx=0;exitDy=0;entryX=0.5;entryY=0;entryDx=0;entryDy=0;endArrow=none;endFill=0;fontSize=18;fontFamily=Libertine;fontSource=https%3A%2F%2Ffonts.cdnfonts.com%2Fcss%2Flinux-libertine;" edge="1" parent="1" source="5-6ZYQQvU9dG8sNJlfuT-6" target="5-6ZYQQvU9dG8sNJlfuT-12">
          <mxGeometry relative="1" as="geometry" />
        </mxCell>
        <mxCell id="5-6ZYQQvU9dG8sNJlfuT-6" value="U" style="ellipse;whiteSpace=wrap;html=1;aspect=fixed;fontFamily=Libertine;fontSource=https%3A%2F%2Ffonts.cdnfonts.com%2Fcss%2Flinux-libertine;fontSize=18;" vertex="1" parent="1">
          <mxGeometry x="150" y="160" width="40" height="40" as="geometry" />
        </mxCell>
        <mxCell id="5-6ZYQQvU9dG8sNJlfuT-28" style="edgeStyle=orthogonalEdgeStyle;rounded=0;orthogonalLoop=1;jettySize=auto;html=1;exitX=0.5;exitY=1;exitDx=0;exitDy=0;entryX=0.5;entryY=0;entryDx=0;entryDy=0;endArrow=none;endFill=0;fontSize=18;fontFamily=Libertine;fontSource=https%3A%2F%2Ffonts.cdnfonts.com%2Fcss%2Flinux-libertine;" edge="1" parent="1" source="5-6ZYQQvU9dG8sNJlfuT-7" target="5-6ZYQQvU9dG8sNJlfuT-13">
          <mxGeometry relative="1" as="geometry" />
        </mxCell>
        <mxCell id="5-6ZYQQvU9dG8sNJlfuT-7" value="S" style="ellipse;whiteSpace=wrap;html=1;aspect=fixed;fontFamily=Libertine;fontSource=https%3A%2F%2Ffonts.cdnfonts.com%2Fcss%2Flinux-libertine;fontSize=18;fillColor=#CDE5D2;" vertex="1" parent="1">
          <mxGeometry x="210" y="160" width="40" height="40" as="geometry" />
        </mxCell>
        <mxCell id="5-6ZYQQvU9dG8sNJlfuT-29" style="edgeStyle=orthogonalEdgeStyle;rounded=0;orthogonalLoop=1;jettySize=auto;html=1;exitX=0.5;exitY=1;exitDx=0;exitDy=0;entryX=0.5;entryY=0;entryDx=0;entryDy=0;endArrow=none;endFill=0;fontSize=18;fontFamily=Libertine;fontSource=https%3A%2F%2Ffonts.cdnfonts.com%2Fcss%2Flinux-libertine;" edge="1" parent="1" source="5-6ZYQQvU9dG8sNJlfuT-8" target="5-6ZYQQvU9dG8sNJlfuT-14">
          <mxGeometry relative="1" as="geometry" />
        </mxCell>
        <mxCell id="5-6ZYQQvU9dG8sNJlfuT-8" value="U" style="ellipse;whiteSpace=wrap;html=1;aspect=fixed;fontFamily=Libertine;fontSource=https%3A%2F%2Ffonts.cdnfonts.com%2Fcss%2Flinux-libertine;fontSize=18;" vertex="1" parent="1">
          <mxGeometry x="270" y="160" width="40" height="40" as="geometry" />
        </mxCell>
        <mxCell id="5-6ZYQQvU9dG8sNJlfuT-30" style="edgeStyle=orthogonalEdgeStyle;rounded=0;orthogonalLoop=1;jettySize=auto;html=1;exitX=0.5;exitY=1;exitDx=0;exitDy=0;entryX=0.5;entryY=0;entryDx=0;entryDy=0;endArrow=none;endFill=0;fontSize=18;fontFamily=Libertine;fontSource=https%3A%2F%2Ffonts.cdnfonts.com%2Fcss%2Flinux-libertine;" edge="1" parent="1" source="5-6ZYQQvU9dG8sNJlfuT-9" target="5-6ZYQQvU9dG8sNJlfuT-15">
          <mxGeometry relative="1" as="geometry" />
        </mxCell>
        <mxCell id="5-6ZYQQvU9dG8sNJlfuT-9" value="T" style="ellipse;whiteSpace=wrap;html=1;aspect=fixed;fontFamily=Libertine;fontSource=https%3A%2F%2Ffonts.cdnfonts.com%2Fcss%2Flinux-libertine;fontSize=18;fillColor=#CDE5D2;" vertex="1" parent="1">
          <mxGeometry x="330" y="160" width="40" height="40" as="geometry" />
        </mxCell>
        <mxCell id="5-6ZYQQvU9dG8sNJlfuT-31" style="edgeStyle=orthogonalEdgeStyle;rounded=0;orthogonalLoop=1;jettySize=auto;html=1;exitX=0.5;exitY=1;exitDx=0;exitDy=0;entryX=0.5;entryY=0;entryDx=0;entryDy=0;endArrow=none;endFill=0;fontSize=18;fontFamily=Libertine;fontSource=https%3A%2F%2Ffonts.cdnfonts.com%2Fcss%2Flinux-libertine;" edge="1" parent="1" source="5-6ZYQQvU9dG8sNJlfuT-10" target="5-6ZYQQvU9dG8sNJlfuT-16">
          <mxGeometry relative="1" as="geometry" />
        </mxCell>
        <mxCell id="5-6ZYQQvU9dG8sNJlfuT-10" value="S" style="ellipse;whiteSpace=wrap;html=1;aspect=fixed;fontFamily=Libertine;fontSource=https%3A%2F%2Ffonts.cdnfonts.com%2Fcss%2Flinux-libertine;fontSize=18;" vertex="1" parent="1">
          <mxGeometry x="390" y="160" width="40" height="40" as="geometry" />
        </mxCell>
        <mxCell id="5-6ZYQQvU9dG8sNJlfuT-11" value="U" style="ellipse;whiteSpace=wrap;html=1;aspect=fixed;fontFamily=Libertine;fontSource=https%3A%2F%2Ffonts.cdnfonts.com%2Fcss%2Flinux-libertine;fontSize=18;fillColor=#CDE5D2;" vertex="1" parent="1">
          <mxGeometry x="90" y="220" width="40" height="40" as="geometry" />
        </mxCell>
        <mxCell id="5-6ZYQQvU9dG8sNJlfuT-12" value="T" style="ellipse;whiteSpace=wrap;html=1;aspect=fixed;fontFamily=Libertine;fontSource=https%3A%2F%2Ffonts.cdnfonts.com%2Fcss%2Flinux-libertine;fontSize=18;" vertex="1" parent="1">
          <mxGeometry x="150" y="220" width="40" height="40" as="geometry" />
        </mxCell>
        <mxCell id="5-6ZYQQvU9dG8sNJlfuT-13" value="U" style="ellipse;whiteSpace=wrap;html=1;aspect=fixed;fontFamily=Libertine;fontSource=https%3A%2F%2Ffonts.cdnfonts.com%2Fcss%2Flinux-libertine;fontSize=18;" vertex="1" parent="1">
          <mxGeometry x="210" y="220" width="40" height="40" as="geometry" />
        </mxCell>
        <mxCell id="5-6ZYQQvU9dG8sNJlfuT-14" value="S" style="ellipse;whiteSpace=wrap;html=1;aspect=fixed;fontFamily=Libertine;fontSource=https%3A%2F%2Ffonts.cdnfonts.com%2Fcss%2Flinux-libertine;fontSize=18;" vertex="1" parent="1">
          <mxGeometry x="270" y="220" width="40" height="40" as="geometry" />
        </mxCell>
        <mxCell id="5-6ZYQQvU9dG8sNJlfuT-15" value="S" style="ellipse;whiteSpace=wrap;html=1;aspect=fixed;fontFamily=Libertine;fontSource=https%3A%2F%2Ffonts.cdnfonts.com%2Fcss%2Flinux-libertine;fontSize=18;" vertex="1" parent="1">
          <mxGeometry x="330" y="220" width="40" height="40" as="geometry" />
        </mxCell>
        <mxCell id="5-6ZYQQvU9dG8sNJlfuT-16" value="T" style="ellipse;whiteSpace=wrap;html=1;aspect=fixed;fontFamily=Libertine;fontSource=https%3A%2F%2Ffonts.cdnfonts.com%2Fcss%2Flinux-libertine;fontSize=18;" vertex="1" parent="1">
          <mxGeometry x="390" y="220" width="40" height="40" as="geometry" />
        </mxCell>
        <mxCell id="5-6ZYQQvU9dG8sNJlfuT-32" value="&lt;font size=&quot;1&quot; data-font-src=&quot;https://fonts.cdnfonts.com/css/linux-libertine&quot; face=&quot;Libertine&quot;&gt;&lt;i style=&quot;font-size: 16px;&quot;&gt;1&lt;/i&gt;&lt;/font&gt;" style="text;html=1;strokeColor=none;fillColor=none;align=center;verticalAlign=middle;whiteSpace=wrap;rounded=0;fontSize=14;fontColor=#226e9c;fontStyle=1" vertex="1" parent="1">
          <mxGeometry x="219" y="32" width="30" height="30" as="geometry" />
        </mxCell>
        <mxCell id="5-6ZYQQvU9dG8sNJlfuT-33" value="&lt;font size=&quot;1&quot; data-font-src=&quot;https://fonts.cdnfonts.com/css/linux-libertine&quot; face=&quot;Libertine&quot;&gt;&lt;i style=&quot;font-size: 16px;&quot;&gt;2&lt;/i&gt;&lt;/font&gt;" style="text;html=1;strokeColor=none;fillColor=none;align=center;verticalAlign=middle;whiteSpace=wrap;rounded=0;fontSize=14;fontColor=#226e9c;fontStyle=1" vertex="1" parent="1">
          <mxGeometry x="99" y="92" width="30" height="30" as="geometry" />
        </mxCell>
        <mxCell id="5-6ZYQQvU9dG8sNJlfuT-34" value="&lt;font size=&quot;1&quot; data-font-src=&quot;https://fonts.cdnfonts.com/css/linux-libertine&quot; face=&quot;Libertine&quot;&gt;&lt;i style=&quot;font-size: 16px;&quot;&gt;3&lt;/i&gt;&lt;/font&gt;" style="text;html=1;strokeColor=none;fillColor=none;align=center;verticalAlign=middle;whiteSpace=wrap;rounded=0;fontSize=14;fontColor=#226e9c;fontStyle=1" vertex="1" parent="1">
          <mxGeometry x="219" y="92" width="30" height="30" as="geometry" />
        </mxCell>
        <mxCell id="5-6ZYQQvU9dG8sNJlfuT-36" value="" style="rounded=0;orthogonalLoop=1;jettySize=auto;html=1;exitX=0.5;exitY=1;exitDx=0;exitDy=0;endArrow=none;endFill=0;entryX=0.5;entryY=0;entryDx=0;entryDy=0;fontSize=18;fontFamily=Libertine;fontSource=https%3A%2F%2Ffonts.cdnfonts.com%2Fcss%2Flinux-libertine;" edge="1" parent="1" source="5-6ZYQQvU9dG8sNJlfuT-1" target="5-6ZYQQvU9dG8sNJlfuT-4">
          <mxGeometry relative="1" as="geometry">
            <mxPoint x="260" y="80" as="sourcePoint" />
            <mxPoint x="380" y="100" as="targetPoint" />
          </mxGeometry>
        </mxCell>
        <mxCell id="5-6ZYQQvU9dG8sNJlfuT-35" value="&lt;font size=&quot;1&quot; data-font-src=&quot;https://fonts.cdnfonts.com/css/linux-libertine&quot; face=&quot;Libertine&quot;&gt;&lt;i style=&quot;font-size: 16px;&quot;&gt;4&lt;/i&gt;&lt;/font&gt;" style="text;html=1;strokeColor=none;fillColor=none;align=center;verticalAlign=middle;whiteSpace=wrap;rounded=0;fontSize=14;fontColor=#226e9c;fontStyle=1" vertex="1" parent="1">
          <mxGeometry x="339" y="92" width="30" height="30" as="geometry" />
        </mxCell>
        <mxCell id="5-6ZYQQvU9dG8sNJlfuT-39" value="&lt;font size=&quot;1&quot; data-font-src=&quot;https://fonts.cdnfonts.com/css/linux-libertine&quot; face=&quot;Libertine&quot;&gt;&lt;i style=&quot;font-size: 16px;&quot;&gt;5&lt;/i&gt;&lt;/font&gt;" style="text;html=1;strokeColor=none;fillColor=none;align=center;verticalAlign=middle;whiteSpace=wrap;rounded=0;fontSize=14;fontColor=#226e9c;fontStyle=1" vertex="1" parent="1">
          <mxGeometry x="69" y="152" width="30" height="30" as="geometry" />
        </mxCell>
        <mxCell id="5-6ZYQQvU9dG8sNJlfuT-40" value="&lt;font size=&quot;1&quot; data-font-src=&quot;https://fonts.cdnfonts.com/css/linux-libertine&quot; face=&quot;Libertine&quot;&gt;&lt;i style=&quot;font-size: 16px;&quot;&gt;6&lt;/i&gt;&lt;/font&gt;" style="text;html=1;strokeColor=none;fillColor=none;align=center;verticalAlign=middle;whiteSpace=wrap;rounded=0;fontSize=14;fontColor=#226e9c;fontStyle=1" vertex="1" parent="1">
          <mxGeometry x="189" y="152" width="30" height="30" as="geometry" />
        </mxCell>
        <mxCell id="5-6ZYQQvU9dG8sNJlfuT-41" value="&lt;font size=&quot;1&quot; data-font-src=&quot;https://fonts.cdnfonts.com/css/linux-libertine&quot; face=&quot;Libertine&quot;&gt;&lt;i style=&quot;font-size: 16px;&quot;&gt;7&lt;/i&gt;&lt;/font&gt;" style="text;html=1;strokeColor=none;fillColor=none;align=center;verticalAlign=middle;whiteSpace=wrap;rounded=0;fontSize=14;fontColor=#226e9c;fontStyle=1" vertex="1" parent="1">
          <mxGeometry x="309" y="152" width="30" height="30" as="geometry" />
        </mxCell>
        <mxCell id="5-6ZYQQvU9dG8sNJlfuT-42" value="&lt;font size=&quot;1&quot; data-font-src=&quot;https://fonts.cdnfonts.com/css/linux-libertine&quot; face=&quot;Libertine&quot;&gt;&lt;i style=&quot;font-size: 16px;&quot;&gt;8&lt;/i&gt;&lt;/font&gt;" style="text;html=1;strokeColor=none;fillColor=none;align=center;verticalAlign=middle;whiteSpace=wrap;rounded=0;fontSize=14;fontColor=#226e9c;fontStyle=1" vertex="1" parent="1">
          <mxGeometry x="69" y="212" width="30" height="30" as="geometry" />
        </mxCell>
      </root>
    </mxGraphModel>
  </diagram>
</mxfile>
